#!OML:ASF C:\ViconDB\ViconDB\414\Spring2016\041811\Spring2016.ASF
:FULLY-SPECIFIED
:DEGREES
301
root 10.1025 17.5656 -14.3534 -176.567 0.00786216 -190.236
lowerback -3.50465 0.0324346 -1.70011
upperback -0.8578 0.0578392 -1.7431
thorax 1.08399 -0.00337362 -0.831606
lowerneck -10.1755 4.6304 -8.28933
upperneck 28.0687 5.06393 5.29962
head 10.2042 1.32305 3.74382
rclavicle -2.0655e-016 7.95139e-015
rhumerus -87.3189 30.5276 -118.788
rradius 91.3368
rwrist 33.1383
rhand -43.695 -2.70151
rfingers 7.12502
rthumb -16.5276 -32.0176
lclavicle -2.0655e-016 7.95139e-015
lhumerus -88.7339 -45.8925 116.935
lradius 82.8146
lwrist -21.4693
lhand -38.9281 -2.15306
lfingers 7.12502
lthumb -11.9343 27.4868
rfemur 211.912 405.7 -134.97
rtibia 29.62
rfoot -45.8148 -59.2444
rtoes 4.80926
lfemur 1.33623 -0.580091 -39.7825
ltibia 17.8021
lfoot -18.7727 -15.2277
ltoes -5.70404
302
root 10.0904 17.5261 -14.5254 -176.459 -0.0302809 -190.646
lowerback -3.74167 -0.0649603 -2.04389
upperback -0.891014 -0.0584207 -1.7431
thorax 1.18231 -0.0651528 -0.64475
lowerneck -10.232 2.04033 -8.15241
upperneck 28.2084 5.78758 4.31228
head 10.355 3.15412 3.76077
rclavicle -5.38893e-016 -2.94201e-014
rhumerus -87.2076 30.473 -118.607
rradius 91.3421
rwrist 33.151
rhand -43.3276 -2.92353
rfingers 7.12502
rthumb -16.1738 -32.2687
lclavicle -5.38893e-016 -2.94201e-014
lhumerus -88.7598 -45.9515 116.998
lradius 82.8173
lwrist -21.5775
lhand -38.9156 -2.20213
lfingers 7.12502
lthumb -11.9222 27.4384
rfemur 213.095 405.871 -134.282
rtibia 29.222
rfoot -47.0783 -58.4451
rtoes 4.02869
lfemur 2.38554 -0.370918 -40.2474
ltibia 16.7958
lfoot -18.6829 -15.532
ltoes -5.68127
303
root 10.0856 17.4944 -14.6965 -176.345 -0.165309 -190.821
lowerback -3.91411 -0.103024 -2.08464
upperback -0.990373 -0.109639 -1.75338
thorax 1.17696 -0.0927626 -0.635246
lowerneck -10.1752 1.82785 -8.54107
upperneck 28.2555 5.55548 4.38148
head 10.3677 3.01953 3.82877
rclavicle 2.63234e-015 -1.74931e-014
rhumerus -87.0182 30.0331 -118.355
rradius 91.2894
rwrist 33.5614
rhand -43.3484 -3.5689
rfingers 7.12502
rthumb -16.1939 -32.9125
lclavicle 2.63234e-015 -1.74931e-014
lhumerus -89.2491 -46.128 117.394
lradius 83.0437
lwrist -20.9505
lhand -38.693 -2.24471
lfingers 7.12502
lthumb -11.7076 27.4081
rfemur 213.045 405.263 -134.866
rtibia 29.0501
rfoot -46.3504 -57.4573
rtoes 1.64197
lfemur 3.53392 -0.22067 -40.3979
ltibia 15.6353
lfoot -18.4779 -15.9153
ltoes -5.55243
304
root 10.0797 17.4594 -14.873 -176.237 -0.287708 -191.184
lowerback -4.12895 -0.144953 -2.36964
upperback -1.06623 -0.157015 -1.80914
thorax 1.21963 -0.121067 -0.535981
lowerneck -10.0335 1.65493 -8.56157
upperneck 28.2034 5.3599 4.17019
head 10.3454 2.90687 3.73059
rclavicle -4.41675e-015 3.18055e-015
rhumerus -86.8179 29.6829 -118.098
rradius 91.2723
rwrist 33.4787
rhand -43.256 -3.02207
rfingers 7.12502
rthumb -16.1048 -32.3729
lclavicle -4.41675e-015 3.18055e-015
lhumerus -89.6506 -46.3201 117.8
lradius 83.0165
lwrist -20.7077
lhand -38.7432 -2.49022
lfingers 7.12502
lthumb -11.756 27.1599
rfemur 212.252 404.333 -136.486
rtibia 29.079
rfoot -45.0391 -56.4067
rtoes -1.46579
lfemur 4.70495 -0.02428 -40.7516
ltibia 14.4464
lfoot -18.2085 -16.3381
ltoes -5.55728
305
root 10.0672 17.4144 -15.0544 -176.165 -0.391411 -191.505
lowerback -4.32336 -0.244853 -2.59692
upperback -1.15293 -0.28292 -1.81896
thorax 1.24095 -0.187385 -0.426178
lowerneck -9.8146 1.5184 -8.811
upperneck 28.0335 5.24364 3.9421
head 10.255 2.80506 3.66459
rclavicle 4.93234e-015 3.89618e-014
rhumerus -86.6781 29.504 -117.851
rradius 91.2974
rwrist 33.3183
rhand -42.4878 -2.3979
rfingers 7.12502
rthumb -15.3651 -31.807
lclavicle 4.93234e-015 3.89618e-014
lhumerus -90.1565 -46.343 118.258
lradius 82.9878
lwrist -20.8114
lhand -38.787 -2.29988
lfingers 7.12502
lthumb -11.7983 27.3478
rfemur 211.216 403.498 -138.127
rtibia 29.1965
rfoot -43.3997 -56.009
rtoes -2.35919
lfemur 5.88755 0.263726 -41.0883
ltibia 13.3425
lfoot -18.0166 -16.7805
ltoes -5.88677
306
root 10.0591 17.3745 -15.2361 -176.06 -0.631939 -191.674
lowerback -4.46083 -0.313689 -2.62751
upperback -1.28558 -0.380656 -1.88054
thorax 1.18222 -0.239243 -0.477918
lowerneck -9.63828 1.32543 -8.77888
upperneck 28.0555 5.01044 3.7772
head 10.2546 2.68983 3.57418
rclavicle 6.73383e-015 -7.95139e-015
rhumerus -86.7515 29.2801 -117.85
rradius 91.4423
rwrist 33.1506
rhand -42.5262 -1.30134
rfingers 7.12502
rthumb -15.4021 -30.7076
lclavicle 6.73383e-015 -7.95139e-015
lhumerus -90.8938 -46.4405 118.786
lradius 83.0103
lwrist -20.5452
lhand -38.7961 -2.03134
lfingers 7.12502
lthumb -11.807 27.6158
rfemur 209.668 402.414 -140.135
rtibia 29.5417
rfoot -41.6758 -55.7125
rtoes -4.9816
lfemur 7.12536 0.272065 -41.2537
ltibia 12.1563
lfoot -17.6917 -17.05
ltoes -6.10386
